{
  "accessors": [
    {
      "bufferView": 2,
      "componentType": 5126,
      "count": 2406,
      "max": [
        0.9877889156341553,
        0.7667809724807739,
        3.7227978706359863
      ],
      "min": [
        -0.27668094635009766,
        -0.7667809724807739,
        -2.537999366225563e-09
      ],
      "type": "VEC3"
    },
    {
      "bufferView": 2,
      "byteOffset": 28872,
      "componentType": 5126,
      "count": 2406,
      "max": [
        1.0,
        1.0,
        1.0
      ],
      "min": [
        -1.0,
        -1.0,
        -1.0
      ],
      "type": "VEC3"
    },
    {
      "bufferView": 3,
      "componentType": 5126,
      "count": 2406,
      "max": [
        1.0,
        1.0,
        1.0,
        1.0
      ],
      "min": [
        -1.0,
        -1.0,
        -1.0,
        -1.0
      ],
      "type": "VEC4"
    },
    {
      "bufferView": 1,
      "componentType": 5126,
      "count": 2406,
      "max": [
        0.9662118554115295,
        0.9720243215560913
      ],
      "min": [
        0.01652274839580059,
        0.0161859393119812
      ],
      "type": "VEC2"
    },
    {
      "bufferView": 0,
      "componentType": 5125,
      "count": 4776,
      "type": "SCALAR"
    },
    {
      "bufferView": 2,
      "byteOffset": 57744,
      "componentType": 5126,
      "count": 2804,
      "max": [
        0.5686020255088806,
        1.9696658849716187,
        1.000000238418579
      ],
      "min": [
        -0.10397085547447205,
        -1.9696658849716187,
        -0.9999997615814209
      ],
      "type": "VEC3"
    },
    {
      "bufferView": 2,
      "byteOffset": 91392,
      "componentType": 5126,
      "count": 2804,
      "max": [
        1.0,
        0.9999972581863403,
        0.9999731183052063
      ],
      "min": [
        -1.0,
        -0.9999971389770508,
        -0.9999992847442627
      ],
      "type": "VEC3"
    },
    {
      "bufferView": 3,
      "byteOffset": 38496,
      "componentType": 5126,
      "count": 2804,
      "max": [
        0.9999930262565613,
        1.0,
        1.0,
        1.0
      ],
      "min": [
        -0.9999992847442627,
        -1.0,
        -1.0,
        -1.0
      ],
      "type": "VEC4"
    },
    {
      "bufferView": 1,
      "byteOffset": 19248,
      "componentType": 5126,
      "count": 2804,
      "max": [
        0.9836121201515198,
        0.9746049642562866
      ],
      "min": [
        0.01639593578875065,
        0.01618591509759426
      ],
      "type": "VEC2"
    },
    {
      "bufferView": 0,
      "byteOffset": 19104,
      "componentType": 5125,
      "count": 6408,
      "type": "SCALAR"
    },
    {
      "bufferView": 2,
      "byteOffset": 125040,
      "componentType": 5126,
      "count": 1949,
      "max": [
        1.2990057468414307,
        0.3209521770477295,
        0.23631057143211365
      ],
      "min": [
        -0.2363104522228241,
        -0.3209521770477295,
        -0.5295534729957581
      ],
      "type": "VEC3"
    },
    {
      "bufferView": 2,
      "byteOffset": 148428,
      "componentType": 5126,
      "count": 1949,
      "max": [
        0.9998499155044556,
        1.0,
        0.9998500347137451
      ],
      "min": [
        -0.9999912977218628,
        -1.0,
        -0.9998499155044556
      ],
      "type": "VEC3"
    },
    {
      "bufferView": 3,
      "byteOffset": 83360,
      "componentType": 5126,
      "count": 1949,
      "max": [
        0.9998325705528259,
        1.0,
        0.9989868998527527,
        1.0
      ],
      "min": [
        -0.9998166561126709,
        -1.0,
        -0.9989854693412781,
        -1.0
      ],
      "type": "VEC4"
    },
    {
      "bufferView": 1,
      "byteOffset": 41680,
      "componentType": 5126,
      "count": 1949,
      "max": [
        0.9422418475151062,
        0.9819878935813904
      ],
      "min": [
        0.16463005542755127,
        0.0161859393119812
      ],
      "type": "VEC2"
    },
    {
      "bufferView": 0,
      "byteOffset": 44736,
      "componentType": 5125,
      "count": 3552,
      "type": "SCALAR"
    },
    {
      "bufferView": 2,
      "byteOffset": 171816,
      "componentType": 5126,
      "count": 844,
      "max": [
        0.9877889156341553,
        0.43650567531585693,
        3.7227978706359863
      ],
      "min": [
        -0.27668094635009766,
        -0.43650567531585693,
        -2.0469885786411623e-09
      ],
      "type": "VEC3"
    },
    {
      "bufferView": 2,
      "byteOffset": 181944,
      "componentType": 5126,
      "count": 844,
      "max": [
        1.0,
        1.0,
        0.9978588819503784
      ],
      "min": [
        -0.9995490312576294,
        -1.0,
        -1.0
      ],
      "type": "VEC3"
    },
    {
      "bufferView": 3,
      "byteOffset": 114544,
      "componentType": 5126,
      "count": 844,
      "max": [
        1.0,
        1.0,
        1.0,
        1.0
      ],
      "min": [
        -1.0,
        -1.0,
        -1.0,
        -1.0
      ],
      "type": "VEC4"
    },
    {
      "bufferView": 1,
      "byteOffset": 57272,
      "componentType": 5126,
      "count": 844,
      "max": [
        0.5390501022338867,
        0.9366196393966675
      ],
      "min": [
        0.016185924410820007,
        0.016185911372303963
      ],
      "type": "VEC2"
    },
    {
      "bufferView": 0,
      "byteOffset": 58944,
      "componentType": 5125,
      "count": 1644,
      "type": "SCALAR"
    },
    {
      "bufferView": 2,
      "byteOffset": 192072,
      "componentType": 5126,
      "count": 1751,
      "max": [
        0.9877889156341553,
        0.9395390748977661,
        4.178476810455322
      ],
      "min": [
        -0.8893364071846008,
        -0.9395390748977661,
        0.0
      ],
      "type": "VEC3"
    },
    {
      "bufferView": 2,
      "byteOffset": 213084,
      "componentType": 5126,
      "count": 1751,
      "max": [
        0.9999557137489319,
        1.0,
        1.0
      ],
      "min": [
        -1.0,
        -1.0,
        -1.0
      ],
      "type": "VEC3"
    },
    {
      "bufferView": 3,
      "byteOffset": 128048,
      "componentType": 5126,
      "count": 1751,
      "max": [
        1.0,
        1.0,
        1.0,
        1.0
      ],
      "min": [
        -1.0,
        -1.0,
        -1.0,
        1.0
      ],
      "type": "VEC4"
    },
    {
      "bufferView": 1,
      "byteOffset": 64024,
      "componentType": 5126,
      "count": 1751,
      "max": [
        0.9749172925949097,
        0.9361720085144043
      ],
      "min": [
        0.01618592068552971,
        0.016185924410820007
      ],
      "type": "VEC2"
    },
    {
      "bufferView": 0,
      "byteOffset": 65520,
      "componentType": 5125,
      "count": 3612,
      "type": "SCALAR"
    }
  ],
  "asset": {
    "extras": {
      "author": "lorib2306 (https://sketchfab.com/lorib2306)",
      "license": "CC-BY-4.0 (http://creativecommons.org/licenses/by/4.0/)",
      "source": "https://sketchfab.com/3d-models/scifi-terminal-ace1b257e2c24ec184662d69e4befca1",
      "title": "Scifi terminal"
    },
    "generator": "Sketchfab-12.66.0",
    "version": "2.0"
  },
  "bufferViews": [
    {
      "buffer": 0,
      "byteLength": 79968,
      "name": "floatBufferViews",
      "target": 34963
    },
    {
      "buffer": 0,
      "byteLength": 78032,
      "byteOffset": 79968,
      "byteStride": 8,
      "name": "floatBufferViews",
      "target": 34962
    },
    {
      "buffer": 0,
      "byteLength": 234096,
      "byteOffset": 158000,
      "byteStride": 12,
      "name": "floatBufferViews",
      "target": 34962
    },
    {
      "buffer": 0,
      "byteLength": 156064,
      "byteOffset": 392096,
      "byteStride": 16,
      "name": "floatBufferViews",
      "target": 34962
    }
  ],
  "buffers": [
    {
      "byteLength": 548160,
      "uri": "scene.bin"
    }
  ],
  "images": [
    {
      "uri": "textures/Material_baseColor.png"
    },
    {
      "uri": "textures/Material_metallicRoughness.png"
    },
    {
      "uri": "textures/Material_emissive.png"
    },
    {
      "uri": "textures/Material_normal.png"
    }
  ],
  "materials": [
    {
      "doubleSided": true,
      "emissiveFactor": [
        1.0,
        1.0,
        1.0
      ],
      "emissiveTexture": {
        "index": 2
      },
      "name": "Material",
      "normalTexture": {
        "index": 3
      },
      "pbrMetallicRoughness": {
        "baseColorTexture": {
          "index": 0
        },
        "metallicRoughnessTexture": {
          "index": 1
        }
      }
    }
  ],
  "meshes": [
    {
      "name": "middle_piece_low_Material_0",
      "primitives": [
        {
          "attributes": {
            "NORMAL": 1,
            "POSITION": 0,
            "TANGENT": 2,
            "TEXCOORD_0": 3
          },
          "indices": 4,
          "material": 0,
          "mode": 4
        }
      ]
    },
    {
      "name": "screen_low_Material_0",
      "primitives": [
        {
          "attributes": {
            "NORMAL": 6,
            "POSITION": 5,
            "TANGENT": 7,
            "TEXCOORD_0": 8
          },
          "indices": 9,
          "material": 0,
          "mode": 4
        }
      ]
    },
    {
      "name": "hinge_bottom_low_Material_0",
      "primitives": [
        {
          "attributes": {
            "NORMAL": 11,
            "POSITION": 10,
            "TANGENT": 12,
            "TEXCOORD_0": 13
          },
          "indices": 14,
          "material": 0,
          "mode": 4
        }
      ]
    },
    {
      "name": "back_piece_low_Material_0",
      "primitives": [
        {
          "attributes": {
            "NORMAL": 16,
            "POSITION": 15,
            "TANGENT": 17,
            "TEXCOORD_0": 18
          },
          "indices": 19,
          "material": 0,
          "mode": 4
        }
      ]
    },
    {
      "name": "front_piece_low_Material_0",
      "primitives": [
        {
          "attributes": {
            "NORMAL": 21,
            "POSITION": 20,
            "TANGENT": 22,
            "TEXCOORD_0": 23
          },
          "indices": 24,
          "material": 0,
          "mode": 4
        }
      ]
    }
  ],
  "nodes": [
    {
      "children": [
        1
      ],
      "matrix": [
        1.0,
        0.0,
        0.0,
        0.0,
        0.0,
        2.220446049250313e-16,
        -1.0,
        0.0,
        0.0,
        1.0,
        2.220446049250313e-16,
        0.0,
        0.0,
        0.0,
        0.0,
        1.0
      ],
      "name": "Sketchfab_model"
    },
    {
      "children": [
        2
      ],
      "matrix": [
        0.009999999776482582,
        0.0,
        0.0,
        0.0,
        0.0,
        0.0,
        0.009999999776482582,
        0.0,
        0.0,
        -0.009999999776482582,
        0.0,
        0.0,
        0.0,
        0.0,
        0.0,
        1.0
      ],
      "name": "18544475a3184488884f51754a7e06dc.fbx"
    },
    {
      "children": [
        3,
        5,
        7,
        9,
        11
      ],
      "name": "RootNode"
    },
    {
      "children": [
        4
      ],
      "matrix": [
        100.0,
        0.0,
        0.0,
        0.0,
        0.0,
        -1.629206793918314e-05,
        -99.99999999999868,
        0.0,
        0.0,
        99.99999999999868,
        -1.629206793918314e-05,
        0.0,
        0.0,
        0.0,
        0.0,
        1.0
      ],
      "name": "middle_piece_low"
    },
    {
      "mesh": 0,
      "name": "middle_piece_low_Material_0"
    },
    {
      "children": [
        6
      ],
      "matrix": [
        98.75698480453605,
        -57.017357982835534,
        -9.451530336172735e-06,
        0.0,
        -3.88057511922359e-06,
        1.2181709220780219e-05,
        -114.03473663330006,
        0.0,
        57.01735798283619,
        98.75698480453573,
        8.609383071785344e-06,
        0.0,
        -89.67359924316406,
        458.7774353027344,
        0.0,
        1.0
      ],
      "name": "screen_low"
    },
    {
      "mesh": 1,
      "name": "screen_low_Material_0"
    },
    {
      "children": [
        8
      ],
      "matrix": [
        100.0,
        0.0,
        0.0,
        0.0,
        -0.0,
        -1.629206793918314e-05,
        -99.99999999999868,
        0.0,
        0.0,
        99.99999999999868,
        -1.629206793918314e-05,
        0.0,
        -74.84004211425781,
        402.05120849609375,
        -1.7881393432617188e-05,
        1.0
      ],
      "name": "hinge_bottom_low"
    },
    {
      "mesh": 2,
      "name": "hinge_bottom_low_Material_0"
    },
    {
      "children": [
        10
      ],
      "matrix": [
        100.0,
        0.0,
        0.0,
        0.0,
        0.0,
        -1.629206793918314e-05,
        -99.99999999999868,
        0.0,
        0.0,
        99.99999999999868,
        -1.629206793918314e-05,
        0.0,
        0.0,
        0.0,
        0.0,
        1.0
      ],
      "name": "back_piece_low"
    },
    {
      "mesh": 3,
      "name": "back_piece_low_Material_0"
    },
    {
      "children": [
        12
      ],
      "matrix": [
        100.0,
        0.0,
        0.0,
        0.0,
        0.0,
        -1.629206793918314e-05,
        -99.99999999999868,
        0.0,
        0.0,
        99.99999999999868,
        -1.629206793918314e-05,
        0.0,
        0.0,
        0.0,
        0.0,
        1.0
      ],
      "name": "front_piece_low"
    },
    {
      "mesh": 4,
      "name": "front_piece_low_Material_0"
    }
  ],
  "samplers": [
    {
      "magFilter": 9729,
      "minFilter": 9987,
      "wrapS": 10497,
      "wrapT": 10497
    }
  ],
  "scene": 0,
  "scenes": [
    {
      "name": "Sketchfab_Scene",
      "nodes": [
        0
      ]
    }
  ],
  "textures": [
    {
      "sampler": 0,
      "source": 0
    },
    {
      "sampler": 0,
      "source": 1
    },
    {
      "sampler": 0,
      "source": 2
    },
    {
      "sampler": 0,
      "source": 3
    }
  ]
}
